<?xml version="1.0" encoding="utf-8"?>
<!-- Generator: Adobe Illustrator 23.0.1, SVG Export Plug-In . SVG Version: 6.00 Build 0)  -->
<svg version="1.1" id="Layer_1" xmlns="http://www.w3.org/2000/svg" xmlns:xlink="http://www.w3.org/1999/xlink" x="0px" y="0px"
	 viewBox="0 0 1920 1080" style="enable-background:new 0 0 1920 1080;" xml:space="preserve">
<style type="text/css">
	.st0{display:none;}
	.st1{display:inline;}
	.st2{display:inline;fill:#FF00FF;}
	.st3{opacity:0.3;}
	.st4{fill:#FF00FF;}
</style>
<g class="st0">
	<g class="st1">
		<g>
			<g id="QnG4x6.tif">
			</g>
		</g>
		
			<image style="overflow:visible;enable-background:new    ;" width="637" height="272" xlink:href="../../../../../../../../../Pictures/Screenshots/Screenshot 2020-03-24 at 11.29.31.png"  transform="matrix(4.0691 0 0 4.0691 -240.4351 -28.1879)">
		</image>
	</g>
	<g id="M7isdJ.tif" class="st1">
	</g>
	<path class="st2" d="M1677-1.1h288v1080"/>
</g>
<g class="st3">
	<path class="st4" d="M2112.8,1078.9c0,0-1299.8-7.6-1299.8-3.8c0,0-17.7-629.1,963.8-1076.2h339.8
		C2116.6-1.1,2109,1078.9,2112.8,1078.9z"/>
</g>
<g class="st3">
	<path class="st4" d="M2112.8,1078.9c0,0-1210.1-3.8-1237.9-3.8c0,0-116.2-562.1,937.3-1076.2h304.4
		C2116.6-1.1,2109,1078.9,2112.8,1078.9z"/>
</g>
<g>
	<path class="st4" d="M2112.8,1078.9c0,0-1182.3-7.6-1182.3-3.8c0,0-72-629.1,909.5-1076.2h276.6
		C2116.6-1.1,2109,1078.9,2112.8,1078.9z"/>
</g>
</svg>
