<?xml version="1.0" encoding="utf-8"?>
<!-- Generator: Adobe Illustrator 23.0.1, SVG Export Plug-In . SVG Version: 6.00 Build 0)  -->
<svg version="1.1" id="Layer_1" xmlns="http://www.w3.org/2000/svg" xmlns:xlink="http://www.w3.org/1999/xlink" x="0px" y="0px"
	 viewBox="0 0 1920 1080" style="enable-background:new 0 0 1920 1080;" xml:space="preserve">
<style type="text/css">
	.st0{display:none;}
	.st1{display:inline;}
	.st2{opacity:0.3;}
	.st3{fill:#FF00FF;}
</style>
<g class="st0">
	<g class="st1">
		<g id="QnG4x6.tif">
		</g>
	</g>
	
		<image style="display:inline;overflow:visible;enable-background:new    ;" width="637" height="272" xlink:href="../../../../../../../../../Pictures/Screenshots/Screenshot 2020-03-24 at 11.29.31.png"  transform="matrix(4.0691 0 0 4.0691 -240.4351 -28.1879)">
	</image>
</g>
<g class="st2">
	<path class="st3" d="M498.5-0.1c0,0,573.5,268.1,648,1083.8h788.2V-0.1C1934.7-0.1,504.2-5.8,498.5-0.1z"/>
</g>
<g>
	<path class="st3" d="M713.2-1.1c0,0,193.1,124.8,356.2,562.1c54.4,145.8,70.7,293.1,174.3,519l690.9,2.7V-1.1
		C1934.7-1.1,718.9-6.8,713.2-1.1z"/>
</g>
<g class="st2">
	<path class="st3" d="M554.1-0.1c0,0,497.7,255.5,629.1,1083.8h751.6V-0.1C1934.7-0.1,559.8-5.8,554.1-0.1z"/>
</g>
</svg>
