<svg xmlns="http://www.w3.org/2000/svg" width="45.746" height="45.736" viewBox="0 0 45.746 45.736">
  <path id="Icon_awesome-instagram" data-name="Icon awesome-instagram" d="M22.873,13.38A11.726,11.726,0,1,0,34.6,25.106,11.708,11.708,0,0,0,22.873,13.38Zm0,19.35A7.624,7.624,0,1,1,30.5,25.106a7.637,7.637,0,0,1-7.624,7.624ZM37.814,12.9a2.735,2.735,0,1,1-2.735-2.735A2.729,2.729,0,0,1,37.814,12.9Zm7.766,2.776c-.173-3.664-1.01-6.909-3.694-9.583S35.967,2.582,32.3,2.4c-3.776-.214-15.094-.214-18.87,0-3.654.173-6.9,1.01-9.583,3.684S.339,12,.155,15.666c-.214,3.776-.214,15.094,0,18.87.173,3.664,1.01,6.909,3.694,9.583s5.919,3.511,9.583,3.694c3.776.214,15.094.214,18.87,0,3.664-.173,6.909-1.01,9.583-3.694S45.4,38.2,45.58,34.536C45.794,30.76,45.794,19.452,45.58,15.676ZM40.7,38.587a7.718,7.718,0,0,1-4.348,4.348c-3.011,1.194-10.154.918-13.481.918s-10.481.265-13.481-.918a7.718,7.718,0,0,1-4.348-4.348c-1.194-3.011-.918-10.154-.918-13.481s-.265-10.481.918-13.481A7.718,7.718,0,0,1,9.391,7.277c3.011-1.194,10.154-.918,13.481-.918s10.481-.265,13.481.918A7.718,7.718,0,0,1,40.7,11.624c1.194,3.011.918,10.154.918,13.481S41.9,35.587,40.7,38.587Z" transform="translate(0.005 -2.238)"/>
</svg>
