<svg xmlns="http://www.w3.org/2000/svg" width="45.721" height="45.72" viewBox="0 0 45.721 45.72">
  <path id="Icon_awesome-linkedin-in" data-name="Icon awesome-linkedin-in" d="M10.234,45.72H.755V15.2h9.479ZM5.49,11.032a5.516,5.516,0,1,1,5.49-5.542A5.536,5.536,0,0,1,5.49,11.032ZM45.71,45.72H36.252V30.861c0-3.541-.071-8.083-4.928-8.083-4.928,0-5.683,3.847-5.683,7.828V45.72H16.172V15.2h9.091V19.36H25.4a9.96,9.96,0,0,1,8.969-4.929c9.593,0,11.357,6.317,11.357,14.522V45.72Z" transform="translate(0 -0.001)"/>
</svg>
