<svg xmlns="http://www.w3.org/2000/svg" width="52.252" height="42.438" viewBox="0 0 52.252 42.438">
  <path id="Icon_awesome-twitter" data-name="Icon awesome-twitter" d="M46.881,13.957c.033.464.033.928.033,1.393,0,14.157-10.775,30.469-30.469,30.469A30.263,30.263,0,0,1,0,41.012a22.155,22.155,0,0,0,2.586.133,21.447,21.447,0,0,0,13.3-4.575A10.728,10.728,0,0,1,5.868,29.142a13.5,13.5,0,0,0,2.023.166,11.326,11.326,0,0,0,2.818-.365,10.71,10.71,0,0,1-8.587-10.51V18.3A10.785,10.785,0,0,0,6.962,19.66,10.725,10.725,0,0,1,3.647,5.337,30.44,30.44,0,0,0,25.728,16.543a12.089,12.089,0,0,1-.265-2.453A10.719,10.719,0,0,1,44,6.763a21.084,21.084,0,0,0,6.8-2.586,10.68,10.68,0,0,1-4.708,5.9A21.468,21.468,0,0,0,52.252,8.42a23.02,23.02,0,0,1-5.371,5.537Z" transform="translate(0 -3.381)"/>
</svg>
